<svg id="emoji" viewBox="0 0 72 72" xmlns="http://www.w3.org/2000/svg">
  <g id="line">
    <circle cx="36" cy="35.9065" r="23" fill="none" stroke="#000000" stroke-linecap="round" stroke-linejoin="round" stroke-miterlimit="10" stroke-width="2"></circle>
    <path fill="#000000" stroke="none" stroke-linecap="round" stroke-linejoin="round" stroke-miterlimit="10" stroke-width="2" d="M44.1736,45.4962c0.3665,0.4132 0.3286,1.0452 -0.0846,1.4117c-1.7185,1.4866 -4.1241,2.4987 -6.586,2.4987c-2.6698,0 -5.2787,-1.1663 -7.0205,-2.908c-1.7418,-1.7418 -2.8644,-4.3507 -2.9081,-7.0206v-7.1429c0.0437,-2.6699 1.1663,-5.2788 2.908,-7.0206c1.7418,-1.7418 4.3507,-2.908 7.0206,-2.908c1.2321,0 2.502,0.248 3.5835,0.6667c1.0841,0.4198 2.7001,1.6479 2.7001,1.6479c0.0816,0.0405 0,0 0,0c0.3205,0.1568 0.5326,0.4731 0.556,0.8291c0.0234,0.356 -0.1453,0.6974 -0.4425,0.8949c-0.2971,0.1975 -0.6772,0.221 -0.9964,0.0616c0,0 -0.0369,-0.0249 0,0c0,0 -0.8571,-0.688 -1.2707,-0.941c-0.4139,-0.2532 -0.8113,-0.4504 -1.2686,-0.6274c-0.9177,-0.3553 -1.8209,-0.5318 -2.8613,-0.5318c-2.2612,0 -4.1166,0.8325 -5.6064,2.3222c-1.4897,1.4897 -2.3659,3.3451 -2.3222,5.6064v7.1429c-0.0437,2.2612 0.8325,4.1166 2.3223,5.6064c1.4898,1.4897 3.3451,2.3222 5.6063,2.3222c2.0831,0 3.8252,-0.6857 5.259,-1.9949c0.4132,-0.3665 1.0452,-0.3286 1.4117,0.0846z"></path>
  </g>
</svg>