<svg id="emoji" viewBox="0 0 72 72" xmlns="http://www.w3.org/2000/svg">
  <g id="line">
    
    
    
    
    <circle cx="36" cy="36.1662" r="23" fill="none" stroke="#000000" stroke-linecap="round" stroke-linejoin="round" stroke-miterlimit="10" stroke-width="2"></circle>
    <path fill="#000000" stroke="none" stroke-linecap="round" stroke-linejoin="round" stroke-miterlimit="10" stroke-width="2" d="M27,48.4065v-25c0,-0.5523 0.4477,-1 1,-1h9.6785c1.9475,0.0425 3.9016,0.8601 5.1718,2.1114c1.2715,1.2525 2.1497,3.1891 2.1497,5.1154c0,1.9263 -0.8782,3.8628 -2.1497,5.1152c-1.2703,1.2512 -3.2243,2.0687 -5.1718,2.1112h-9.6785c-0.4808,-0.3116 -0.6507,-0.9348 -0.3944,-1.4472c0.2562,-0.5125 0.8567,-0.7505 1.3944,-0.5528h8.6785c1.544,0.0425 2.7507,-0.5337 3.7683,-1.5361c1.0163,-1.0011 1.5532,-2.1778 1.5532,-3.6903c0,-1.5126 -0.5369,-2.6894 -1.5532,-3.6906c-1.0176,-1.0024 -2.2243,-1.5787 -3.7683,-1.5362h-8.6785c0.6667,8.0556 -0.0092,16.1659 -2,24z"></path>
    <line x1="37.7238" x2="43.2251" y1="35.8597" y2="48.4065" fill="none" stroke="#000000" stroke-linecap="round" stroke-linejoin="round" stroke-miterlimit="10" stroke-width="2"></line>
  </g>
</svg>