<svg id="emoji" viewBox="0 0 72 72" xmlns="http://www.w3.org/2000/svg">
  <g id="line">
    <rect x="16.5" y="4.8" width="39" height="62.4" fill="none" stroke="#000" stroke-linecap="round" stroke-linejoin="round" stroke-width="2"></rect>
    <path fill="#000" stroke="none" stroke-linecap="round" stroke-linejoin="round" stroke-width="2" d="M21.2383,24.2621c-0.1885,0.0132 -0.6475,-0.0213 -0.857,-0.1751c-0.2214,-0.1626 -0.418,-0.6204 -0.4247,-0.8124c-0.0071,-0.202 0.0833,-0.5018 0.1547,-0.6495c0.1071,-0.2213 0.3327,-0.5568 0.5967,-0.867c0.4947,-0.5812 1.3728,-1.3866 2.4729,-2.0108c2.1329,-1.2103 5.1175,-1.7651 8.8025,-0.2868c0.5671,-1.0372 0.7562,-1.9887 3.2722,-4.321c1.2444,-1.1535 2.9554,-2.2641 4.9314,-2.7474c1.9489,-0.4767 4.4,-0.354 7.047,0.6895c0.3321,0.135 0.5666,0.4375 0.6145,0.7928c0.0479,0.3553 -0.0981,0.7091 -0.3826,0.9272c0,0 -2.0193,1.5482 -3.7719,3.0613c-0.4217,0.3641 -0.8174,0.7164 -1.1617,1.0399c3.3553,-0.0152 5.5454,1.0329 6.758,2.1706c1.5182,1.4244 1.8779,3.1137 1.8779,3.1137c0.0692,0.3416 -0.0444,0.6946 -0.2999,0.9317c-0.2555,0.2371 -0.616,0.324 -0.9515,0.2295c-2.3838,-0.6909 -3.5599,-0.68 -4.2557,-0.3709c-0.265,0.1177 -0.2797,0.1353 -0.3704,0.3395c-0.0927,0.2087 -0.1055,0.364 -0.0729,0.7121c0.142,1.5166 1.421,3.3994 1.421,3.3994c0.288,0.4269 0.2046,1.0028 -0.1926,1.3305c-0.3972,0.3278 -0.9784,0.3003 -1.3429,-0.0636c-3.2573,-3.3093 -6.5148,-4.555 -9.7712,-4.5079c-3.2382,0.0468 -6.1814,1.3987 -8.7941,3.8068c0.2983,-0.2785 0.3977,-0.7108 0.25,-1.092c-0.1491,-0.3851 -0.5196,-0.6389 -0.9325,-0.6389c-0.3888,0.1856 -0.8225,0.4269 -0.8588,0.4878c-0.0138,0.0231 -0.0329,0.0594 -0.0391,0.0721c-0.0064,0.013 -0.0154,0.0329 -0.0184,0.0397c-0.003,0.0069 -0.0074,0.0173 -0.0088,0.0208c-0.0015,0.0035 -0.0036,0.0089 -0.0043,0.0107c-0.0007,0.0018 -0.0018,0.0047 -0.0022,0.0056c-0.0004,0.001 -0.001,0.0026 -0.0012,0.0032c-0.0002,0.0005 -0.0006,0.0015 -0.0007,0.0018c0,0 0,0 0,0c0,0 0,-0.0001 0.0002,-0.0004c0.001,-0.0026 0.0018,-0.0048 0.0037,-0.0099c0.0046,-0.0123 0.0099,-0.0271 0.0182,-0.0506c0.0181,-0.0513 0.0409,-0.1179 0.0704,-0.2111c0.062,-0.1956 0.1353,-0.4486 0.2066,-0.7667c0.1471,-0.6562 0.2495,-1.3865 0.1509,-2.1081c-0.0978,-0.7156 -0.242,-1.0759 -0.8105,-1.4083c-0.6478,-0.3788 -1.5432,-0.5139 -3.3235,-0.0875zM23.2855,22.0658c0.9511,0.0307 1.7257,0.2297 2.2859,0.5573c1.0692,0.6253 1.6464,1.8679 1.7825,2.864c0.0594,0.4349 0.0636,0.889 0.0355,1.3241c2.4106,-1.5971 5.1486,-2.5837 7.914,-2.6237c3.6262,-0.0524 5.3167,0.7725 7.9657,2.4787c-0.0117,-0.1235 -0.0257,-0.2725 -0.0424,-0.4509c-0.0496,-0.5296 0.0129,-1.2075 0.2365,-1.7107c0.2256,-0.5077 0.7685,-1.0806 1.3861,-1.355c1.0694,-0.4751 1.933,-0.4079 3.4881,-0.1812c-0.1215,-0.1434 0.6806,0.592 -0.4154,-0.4364c-1.1941,-1.1203 -3.1119,-2.103 -6.966,-1.5386c-0.2424,0.0187 -0.6535,-0.0105 -0.8831,-0.1335c-0.1678,-0.0899 -0.4235,-0.3606 -0.503,-0.5406c-0.0738,-0.1673 -0.1062,-0.4746 -0.0875,-0.6229c0.0453,-0.3598 0.3486,-0.8393 0.6226,-1.1633c0.5042,-0.596 1.3822,-1.4069 2.2821,-2.1839c1.7965,-1.551 2.4023,-1.9871 2.4023,-1.9871c-1.5476,-0.3891 -2.4449,-0.4386 -4.1272,-0.0271c-1.6552,0.4048 -2.9274,1.2337 -4.0469,2.2714c-2.2117,2.0502 -3.2459,4.5378 -3.2459,4.5378c-0.1078,0.2583 -0.319,0.4596 -0.5822,0.5549c-0.2632,0.0953 -0.5543,0.076 -0.8025,-0.0533c-3.4034,-1.9041 -5.9396,-1.2242 -7.8168,-0.159c-0.3314,0.188 -0.6242,0.3832 -0.8825,0.579z"></path>
    <path fill="#000" stroke="none" stroke-linecap="round" stroke-linejoin="round" stroke-width="2" d="M36.9934,49.3333c0,0.5523 -0.4477,1 -1,1c-3.2893,-0.0516 -9.4399,3.0393 -9.4399,3.0393c-0.3006,0.1483 -0.6555,0.136 -0.9452,-0.0325c-0.2897,-0.1686 -0.4757,-0.471 -0.4954,-0.8056c-0.0669,-2.3016 0.7692,-3.7018 1.3522,-5.0916c-2.2751,0.0966 -6.5288,1.3054 -6.5288,1.3054c-0.3004,0.0809 -0.6214,0.0174 -0.8684,-0.1718c-0.247,-0.1892 -0.3918,-0.4826 -0.3918,-0.7938c0.1503,-1.1396 1.6278,-2.7954 3.112,-3.8911c0.7422,-0.5479 1.5556,-1.0654 2.2383,-1.4303c0.7,-0.3741 1.4984,-0.5633 1.4984,-0.5633c0.0523,-0.0242 0,0 0,0c0.4871,-0.2603 1.093,-0.0765 1.3533,0.4106c0.2603,0.4871 0.0765,1.093 -0.4106,1.3533c0,0 -0.8999,0.2435 -1.4984,0.5633c-0.6158,0.3291 -1.3067,0.7686 -1.9931,1.2754c-0.6928,0.5115 -0.9707,0.5836 -1.0566,0.5842c0.0248,0.0163 0.06,0.0556 0.0907,0.1425c2.1633,-0.4445 4.2734,-1.1683 6.2565,-0.5541c0.2705,0.0967 0.4864,0.3051 0.5926,0.572c0.1062,0.2669 0.0925,0.5666 -0.0377,0.8227c0,0 -1.0669,2.0139 -1.5217,3.7738c2.1958,-0.9466 4.9621,-2.4569 8.6938,-2.5085c0.5523,0 1,0.4477 1,1z"></path>
    <path fill="#000" stroke="none" stroke-linecap="round" stroke-linejoin="round" stroke-width="2" d="M44.99,42.7768c0.0018,-0.5523 0.4509,-0.9986 1.0032,-0.9968c0.8428,0.0627 2.721,1.0162 4.2048,2.1116c1.4842,1.0957 2.9616,2.7515 3.112,3.8911c0,0.3111 -0.1448,0.6045 -0.3918,0.7938c-0.247,0.1892 -0.568,0.2527 -0.8684,0.1718c0,0 -4.2538,-1.2088 -6.5289,-1.3054c0.583,1.3898 1.4191,2.79 1.3521,5.0916c-0.0197,0.3346 -0.2057,0.6371 -0.4954,0.8056c-0.2897,0.1685 -0.6446,0.1807 -0.9452,0.0325c0,0 -1.5528,-0.7658 -3.543,-1.5354c-1.0004,-0.3868 -2.0762,-0.7623 -3.1325,-1.0475c-0.5267,-0.1422 -1.0163,-0.2542 -1.498,-0.3353c-0.4778,-0.0805 -1.4325,-0.135 -1.4325,-0.135c0.0325,0.0044 0,0 0,0c-0.3444,-0.0927 -0.6129,-0.3626 -0.7037,-0.7075c-0.0908,-0.3449 0.01,-0.712 0.2641,-0.9623c0.2542,-0.2502 0.6228,-0.3452 0.9663,-0.2491c0,0 -0.0288,-0.0101 0,0c0,0 4.1973,0.7746 6.2575,1.5712c2.0733,0.8017 1.4836,0.5988 2.0722,0.8566c-0.4567,-1.7566 -1.5183,-3.7604 -1.5183,-3.7604c-0.1302,-0.2561 -0.1439,-0.5558 -0.0377,-0.8227c0.1062,-0.2669 0.3221,-0.4753 0.5926,-0.572c1.9831,-0.6142 4.0892,0.109 6.2521,0.5532c-0.2921,-0.2286 0.4116,0.2879 -0.9614,-0.7258c-1.3734,-1.0139 -2.6553,-1.7795 -3.0234,-1.7207c-0.5523,-0.0018 -0.9986,-0.4509 -0.9968,-1.0032z"></path>
    <path fill="#000" stroke="none" stroke-linecap="round" stroke-linejoin="round" stroke-width="2" d="M23.37,6.35c0.5523,0 1,0.4477 1,1v4.5c-0.0436,0.8947 -0.4467,1.8964 -1.0251,2.4749c-0.5784,0.5784 -1.5799,0.9813 -2.4744,1.0251c-0.4017,-0.0083 -0.8873,-0.0907 -1.2549,-0.2317c-0.3676,-0.1411 -0.7767,-0.4766 -0.7767,-0.4766c-0.0811,-0.0398 0,0 0,0c-0.5156,-0.1979 -0.7732,-0.7763 -0.5753,-1.2919c0.1979,-0.5156 0.7763,-0.7732 1.2919,-0.5753c0,0 0.0811,0.0398 0,0c0,0 0.577,0.4 0.7767,0.4766c0.1996,0.0766 0.3204,0.108 0.5364,0.099c0.486,0.0436 0.7357,-0.1129 1.0621,-0.4393c0.3264,-0.3264 0.483,-0.5746 0.4393,-1.0607v-4.5c0,-0.5523 0.4477,-1 1,-1z"></path>
    <path fill="#000" stroke="none" stroke-linecap="round" stroke-linejoin="round" stroke-width="2" d="M48.63,65.2165c-0.5523,0 -1,-0.4477 -1,-1v-4.5c0.0436,-0.8947 0.4467,-1.8964 1.0251,-2.4749c0.5784,-0.5784 1.5799,-0.9813 2.4744,-1.0251c0.4017,0.0083 0.8873,0.0907 1.2549,0.2317c0.3676,0.1411 0.7767,0.4766 0.7767,0.4766c0.0811,0.0398 0,0 0,0c0.5156,0.1979 0.7732,0.7763 0.5753,1.2919c-0.1979,0.5156 -0.7763,0.7732 -1.2919,0.5753c0,0 -0.0811,-0.0398 0,0c0,0 -0.577,-0.4 -0.7767,-0.4766c-0.1996,-0.0766 -0.3204,-0.108 -0.5364,-0.099c-0.486,-0.0436 -0.7357,0.1129 -1.0621,0.4393c-0.3264,0.3264 -0.483,0.5746 -0.4393,1.0607v4.5c0,0.5523 -0.4477,1 -1,1z"></path>
    <circle cx="50.782" cy="27.4753" r="1.9488"></circle>
    <circle cx="48.8332" cy="16.4818" r="1.9488"></circle>
    <circle cx="20.6797" cy="26.4668" r="1.9488"></circle>
    <path d="M41.7716,31.0968a1.9489,1.9489,0,1,1-1.9488-1.9489,1.95,1.95,0,0,1,1.9488,1.9489"></path>
    <path d="M33.9763,31.0968a1.9489,1.9489,0,1,1-1.9489-1.9489,1.95,1.95,0,0,1,1.9489,1.9489"></path>
    <path d="M35.925,40.8433a7.4566,7.4566,0,0,1-3.3591-.836.9745.9745,0,1,1,.8717-1.7432,5.24,5.24,0,0,0,4.9748,0,.9745.9745,0,1,1,.8717,1.7432A7.4566,7.4566,0,0,1,35.925,40.8433Z"></path>
  </g>
</svg>