<svg id="emoji" viewBox="0 0 72 72" version="1.1" xmlns="http://www.w3.org/2000/svg">
  <g id="grid">
    <path fill="#b3b3b3" d="M68,4V68H4V4H68m4-4H0V72H72V0Z"/>
    <path fill="none" stroke="#00a5ff" stroke-miterlimit="10" stroke-width="0.1" d="M12.923,10.9583H59.077A1.923,1.923,0,0,1,61,12.8813V59.0352a1.9231,1.9231,0,0,1-1.9231,1.9231H12.9231A1.9231,1.9231,0,0,1,11,59.0352V12.8813a1.923,1.923,0,0,1,1.923-1.923Z"/>
    <rect x="16" y="4" rx="2.2537" width="40" height="64" fill="none" stroke="#00a5ff" stroke-miterlimit="10" stroke-width="0.1"/>
    <rect x="16" y="4" rx="2.2537" width="40" height="64" transform="rotate(90 36 36)" fill="none" stroke="#00a5ff" stroke-miterlimit="10" stroke-width="0.1"/>
    <circle cx="36" cy="36" r="29" fill="none" stroke="#00a5ff" stroke-miterlimit="10" stroke-width="0.1"/>
  </g>
  <g id="color">
    <path fill="#fcea2b" d="m12 36a24 24 0 1 0 24-24 24.027 24.027 0 0 0-24 24z"/>
  </g>
  <g id="line" fill="none" stroke="#000" stroke-width="2">
    <circle cx="36" cy="36" r="23" stroke-miterlimit="10"/>
    <path stroke-linecap="round" stroke-linejoin="round" d="m42.786 49.6a12.449 12.449 0 0 0-6.8422-1.8532 10.389 10.389 0 0 0-6.1578 1.8532"/>
    <path stroke-linecap="round" stroke-linejoin="round" d="m51.422 39.497a7.4028 7.4028 0 0 1-5.3048-0.3243 7.4 7.4 0 0 1-4.11-3.4111"/>
    <path stroke-linecap="round" stroke-linejoin="round" d="m21.185 39.487a8.44 8.44 0 0 0 9.413-3.7176"/>
  </g>
</svg>
