<svg id="emoji" viewBox="0 0 72 72" xmlns="http://www.w3.org/2000/svg">
  <g id="line">
    <circle cx="36" cy="35.9065" r="23" fill="none" stroke="#000000" stroke-linecap="round" stroke-linejoin="round" stroke-miterlimit="10" stroke-width="2"></circle>
    <path d="M28.5744,33.335c-0.5523,0 -1,-0.4477 -1,-1c0.1464,-5.2847 8.9286,-8.9286 8.9286,-8.9286c0.1464,-0.3536 0,0 0,0c0.1401,-0.3038 0.4544,-0.4884 0.7879,-0.4628c0.3336,0.0256 0.616,0.2561 0.708,0.5778c0.092,0.3217 -0.0258,0.6666 -0.2954,0.8647c0,0 -0.0486,0.0075 0,0c0,0 -1.2663,0.0723 -1.7994,0.1814c-0.5317,0.1088 -0.9974,0.2545 -1.4869,0.4616c-0.9782,0.4137 -1.7789,0.9579 -2.5205,1.6996c-1.4897,1.4897 -2.3659,3.3451 -2.3222,5.6064c0,0.5523 -0.4477,1 -1,1z" fill="none" fill-rule="nonzero" stroke="none" stroke-width="0" stroke-linecap="butt" stroke-linejoin="miter" stroke-miterlimit="10" stroke-dasharray="" stroke-dashoffset="0" font-family="none" font-weight="none" font-size="none" text-anchor="none" style="mix-blend-mode: normal"></path><path d="M28.5744,40.4779c-0.5523,0 -1,-0.4477 -1,-1v-7.1429c0,-4.9311 0,0 0,0c0,-0.5523 0.4477,-1 1,-1c0.5523,0 1,0.4477 1,1c0,0 0,-4.9311 0,0v7.1429c0,0.5523 -0.4477,1 -1,1z" fill="none" fill-rule="nonzero" stroke="none" stroke-width="0" stroke-linecap="butt" stroke-linejoin="miter" stroke-miterlimit="10" stroke-dasharray="" stroke-dashoffset="0" font-family="none" font-weight="none" font-size="none" text-anchor="none" style="mix-blend-mode: normal"></path><path d="M28.5744,31.335c0.5523,0 1,0.4477 1,1v7.1429c0,0.5523 -0.4477,1 -1,1c-0.5523,0 -1,-0.4477 -1,-1v-7.1429c0,-0.5523 0.4477,-1 1,-1z" fill="none" fill-rule="nonzero" stroke="none" stroke-width="0" stroke-linecap="butt" stroke-linejoin="miter" stroke-miterlimit="10" stroke-dasharray="" stroke-dashoffset="0" font-family="none" font-weight="none" font-size="none" text-anchor="none" style="mix-blend-mode: normal"></path><path d="M28.5744,40.4779c-0.5523,0 -1,-0.4477 -1,-1v-7.1429c0,-0.5523 0.4477,-1 1,-1c0.5523,0 1,0.4477 1,1v7.1429c0,0.5523 -0.4477,1 -1,1z" fill="none" fill-rule="nonzero" stroke="none" stroke-width="0" stroke-linecap="butt" stroke-linejoin="miter" stroke-miterlimit="10" stroke-dasharray="" stroke-dashoffset="0" font-family="none" font-weight="none" font-size="none" text-anchor="none" style="mix-blend-mode: normal"></path><path d="M38.503,48.4065c0,0.5523 -0.4477,1 -1,1c-5.2845,-0.1464 -8.9286,-8.9286 -8.9286,-8.9286c-0.3535,-0.1464 0,0 0,0c-0.3038,-0.1401 -0.4884,-0.4544 -0.4628,-0.7879c0.0256,-0.3336 0.2561,-0.616 0.5778,-0.708c0.3217,-0.092 0.6666,0.0258 0.8647,0.2954c0,0 0.0075,0.0486 0,0c0,0 0.0723,1.2663 0.1814,1.7994c0.1088,0.5317 0.2545,0.9974 0.4616,1.4869c0.4137,0.9782 0.958,1.7789 1.6996,2.5205c1.4898,1.4897 3.3451,2.3659 5.6063,2.3222c0.5523,0 1,0.4477 1,1z" fill="none" fill-rule="nonzero" stroke="none" stroke-width="0" stroke-linecap="butt" stroke-linejoin="miter" stroke-miterlimit="10" stroke-dasharray="" stroke-dashoffset="0" font-family="none" font-weight="none" font-size="none" text-anchor="none" style="mix-blend-mode: normal"></path><path d="M44.1736,45.4962c0.3665,0.4132 0.3286,1.0452 -0.0846,1.4117c-0.8577,0.7507 -1.9185,1.4123 -3.0026,1.832c-1.0814,0.4187 -3.2224,0.5992 -3.2224,0.5992c-0.0847,0.0245 0,0 0,0c-0.3427,0.0993 -0.7123,0.0076 -0.9689,-0.2402c-0.2566,-0.2479 -0.361,-0.6141 -0.2737,-0.96c0.0873,-0.3459 0.353,-0.6187 0.6965,-0.7151c0,0 0.045,-0.0064 0,0c0,0 1.1685,-0.0615 1.6625,-0.1545c0.4927,-0.0928 0.9259,-0.2172 1.384,-0.3945c0.915,-0.3542 1.6792,-0.816 2.3976,-1.4632c0.4132,-0.3665 1.0452,-0.3286 1.4117,0.0846z" fill="none" fill-rule="nonzero" stroke="none" stroke-width="0" stroke-linecap="butt" stroke-linejoin="miter" stroke-miterlimit="10" stroke-dasharray="" stroke-dashoffset="0" font-family="none" font-weight="none" font-size="none" text-anchor="none" style="mix-blend-mode: normal"></path>
  </g>
</svg>