<svg id="emoji" viewBox="0 0 72 72" xmlns="http://www.w3.org/2000/svg">
  <g id="line">
    
    
    
    
    <circle cx="36" cy="36.1662" r="23" fill="none" stroke="#000000" stroke-linecap="round" stroke-linejoin="round" stroke-miterlimit="10" stroke-width="2"></circle>
    <path d="M44,28.6333c0.5523,0 1,0.4477 1,1c-0.0448,1.9263 -0.8782,3.8628 -2.1497,5.1152c-0.6385,0.6289 -1.4807,1.1926 -2.3265,1.545c-0.8426,0.351 -2.4607,0.4893 -2.4607,0.4893c-0.0897,0.0278 0,0 0,0c-0.3406,0.106 -0.7119,0.0215 -0.9731,-0.2213c-0.2613,-0.2428 -0.3726,-0.6069 -0.2919,-0.9543c0.0808,-0.3474 0.3413,-0.6251 0.6829,-0.7278c0,0 0.0479,-0.0073 0,0c0,0 0.91,-0.0531 1.274,-0.1265c0.3626,-0.0731 0.6656,-0.1665 0.9996,-0.3056c0.6668,-0.2778 1.1868,-0.6259 1.6922,-1.1237c1.0163,-1.0011 1.598,-2.1778 1.5532,-3.6903c0,-0.5523 0.4477,-1 1,-1z" fill="none" fill-rule="nonzero" stroke="none" stroke-width="0" stroke-linecap="butt" stroke-linejoin="miter" stroke-miterlimit="10" stroke-dasharray="" stroke-dashoffset="0" font-family="none" font-weight="none" font-size="none" text-anchor="none" style="mix-blend-mode: normal"></path><path d="M36.6785,23.4065c0,-0.5523 0.4477,-1 1,-1c1.9475,0.0425 3.9016,0.8601 5.1718,2.1114c0.6389,0.6293 1.2131,1.4616 1.5718,2.2971c0.3577,0.833 0.4967,2.4237 0.4967,2.4237c0.0293,0.0917 0,0 0,0c0.1089,0.3396 0.0276,0.7116 -0.2129,0.9749c-0.2406,0.2633 -0.6037,0.3777 -0.9518,0.2998c-0.3481,-0.0779 -0.6278,-0.3361 -0.7333,-0.6768c0,0 -0.0077,-0.0493 0,0c0,0 -0.0544,-0.8984 -0.1284,-1.2549c-0.0738,-0.3551 -0.1675,-0.6502 -0.3081,-0.9777c-0.281,-0.6544 -0.6325,-1.1639 -1.1376,-1.6614c-1.0176,-1.0024 -2.2243,-1.5787 -3.7683,-1.5362c-0.5523,0 -1,-0.4477 -1,-1z" fill="none" fill-rule="nonzero" stroke="none" stroke-width="0" stroke-linecap="butt" stroke-linejoin="miter" stroke-miterlimit="10" stroke-dasharray="" stroke-dashoffset="0" font-family="none" font-weight="none" font-size="none" text-anchor="none" style="mix-blend-mode: normal"></path><path d="M27,23.4065c0,-0.5523 0.4477,-1 1,-1h9.6785c3.4915,0 0,0 0,0c0.5523,0 1,0.4477 1,1c0,0.5523 -0.4477,1 -1,1c0,0 3.4915,0 0,0h-9.6785c-0.5523,0 -1,-0.4477 -1,-1z" fill="none" fill-rule="nonzero" stroke="none" stroke-width="0" stroke-linecap="butt" stroke-linejoin="miter" stroke-miterlimit="10" stroke-dasharray="" stroke-dashoffset="0" font-family="none" font-weight="none" font-size="none" text-anchor="none" style="mix-blend-mode: normal"></path><path d="M28,49.4065c-0.5523,0 -1,-0.4477 -1,-1v-25c0,-0.5523 0.4477,-1 1,-1c0.5523,0 1,0.4477 1,1v25c0,0.5523 -0.4477,1 -1,1z" fill="none" fill-rule="nonzero" stroke="none" stroke-width="0" stroke-linecap="butt" stroke-linejoin="miter" stroke-miterlimit="10" stroke-dasharray="" stroke-dashoffset="0" font-family="none" font-weight="none" font-size="none" text-anchor="none" style="mix-blend-mode: normal"></path>
    <line x1="37.7238" x2="43.2251" y1="35.8597" y2="48.4065" fill="none" stroke="#000000" stroke-linecap="round" stroke-linejoin="round" stroke-miterlimit="10" stroke-width="2"></line>
  </g>
</svg>