<svg id="emoji" viewBox="0 0 72 72" xmlns="http://www.w3.org/2000/svg">
  <g id="line">
    <rect x="16.5" y="4.8" width="39" height="62.4" fill="none" stroke="#000" stroke-linecap="round" stroke-linejoin="round" stroke-width="2"></rect>
    <path d="M50.0787,25.3797c0,0 -3.375,-0.4829 -4.9181,0.3685c-0.2215,1.4397 1.4785,3.6801 1.4785,3.6801c0.288,0.4269 0.2046,1.0028 -0.1926,1.3305c-0.3972,0.3278 -0.9784,0.3003 -1.3429,-0.0636c-1.4036,-1.4183 -2.2145,-2.6802 -2.4313,-3.6308c-0.1233,-0.5409 -0.0699,-1.1925 0.1064,-1.6178c0.1807,-0.4359 0.4372,-0.7034 0.7312,-0.9671c0.3944,-0.6855 0.976,-1.3582 2.1773,-1.5853c1.0566,-0.1997 2.6702,-0.0542 4.7723,0.529c0.5008,0.1412 0.8097,0.6428 0.7103,1.1536c-0.0994,0.5108 -0.574,0.8599 -1.0912,0.8029zM45.1167,24.5457c0.1465,0.208 3.9911,0.1567 4.09,-0.3512c0.0948,-0.4869 -4.3786,-0.0585 -4.09,0.3512z" fill="none" fill-rule="nonzero" stroke="none" stroke-width="0" stroke-linecap="butt" stroke-linejoin="miter" stroke-miterlimit="10" stroke-dasharray="" stroke-dashoffset="0" font-family="none" font-weight="none" font-size="none" text-anchor="none" style="mix-blend-mode: normal"></path><path d="M40.7056,19.0091c4.4036,-0.4777 7.1646,0.7319 8.5848,2.0644c1.5182,1.4244 1.8779,3.1137 1.8779,3.1137c0.0692,0.3416 -0.0444,0.6946 -0.2999,0.9317c-0.2555,0.2371 -0.616,0.324 -0.9515,0.2295c-5.0685,-1.4298 -8.0425,-2.4925 -9.4524,-3.2323c-0.3779,-0.1983 -0.7208,-0.4208 -0.932,-0.6074c-0.271,-0.2393 -0.5774,-0.7798 -0.5587,-1.1568c0.0213,-0.4306 0.5048,-0.9699 0.818,-1.1118c0.235,-0.1065 0.5948,-0.1879 0.9137,-0.2309z" fill="none" fill-rule="nonzero" stroke="none" stroke-width="0" stroke-linecap="butt" stroke-linejoin="miter" stroke-miterlimit="10" stroke-dasharray="" stroke-dashoffset="0" font-family="none" font-weight="none" font-size="none" text-anchor="none" style="mix-blend-mode: normal"></path><path d="M47.466,14.8017c0,0 -1.2489,0.957 -2.6361,2.1034c0.1043,0.7603 0.0577,1.6324 -0.3562,2.3062c-0.51,0.8302 -1.7566,1.5195 -3.5178,1.782c-0.2805,0.0185 -0.7826,-0.0405 -1.0332,-0.2295c-0.1807,-0.1362 -0.3973,-0.5033 -0.4331,-0.7112c-0.0295,-0.1709 0.0005,-0.4472 0.0411,-0.5812c0.1059,-0.3495 0.453,-0.8162 0.7983,-1.1917c0.5485,-0.5963 1.3892,-1.3582 2.2503,-2.0957c-0.3709,-1.0164 -0.9587,-2.1723 -0.8329,-2.9566c0.0582,-0.3624 0.4385,-0.9178 0.8309,-1.0949c0.3022,-0.1365 0.8063,-0.1819 1.2267,-0.1304c0.723,0.0886 1.8553,0.4414 3.43,1.0795c0.3321,0.135 0.5666,0.4375 0.6145,0.7928c0.0479,0.3553 -0.0981,0.7091 -0.3826,0.9272zM44.8429,14.3157c-0.4333,-0.1453 -0.6355,-0.2217 -0.9532,-0.2796c0.0692,0.1649 0.1609,0.4196 0.2791,0.8259c0.3676,-0.2984 0.5695,-0.462 0.6742,-0.5463z" fill="none" fill-rule="nonzero" stroke="none" stroke-width="0" stroke-linecap="butt" stroke-linejoin="miter" stroke-miterlimit="10" stroke-dasharray="" stroke-dashoffset="0" font-family="none" font-weight="none" font-size="none" text-anchor="none" style="mix-blend-mode: normal"></path><path d="M33.3695,21.1442c-0.1078,0.2583 -0.319,0.4596 -0.5822,0.5549c-0.2632,0.0953 -0.5543,0.076 -0.8025,-0.0533c-0.9442,-0.5098 -1.6873,-1.165 -1.9419,-1.7687c-0.1511,-0.3581 -0.1833,-0.9027 -0.0876,-1.2529c0.091,-0.3332 0.3399,-0.736 0.582,-0.9949c0.8057,-0.8614 2.544,-1.6175 4.4245,-2.2077c1.2209,-1.1875 2.8838,-2.3639 4.8373,-2.9261c2.0262,-0.5832 4.6135,-0.5228 7.435,0.5862c0.4207,0.171 0.6733,0.6039 0.6153,1.0543c-0.0581,0.4504 -0.4123,0.8051 -0.8626,0.8637c0,0 -6.3431,0.8199 -10.9631,2.1891c-1.8294,1.8924 -2.6542,3.9554 -2.6542,3.9554zM31.998,18.9956c-0.0556,0.0595 -0.0927,0.0862 -0.1162,0.0957c0.0013,0.0026 0.0027,0.0055 0.004,0.0086c0.0141,0.0335 0.0254,0.0606 0.0347,0.0828c0.1401,-0.1442 0.3229,-0.3333 0.5574,-0.5776c-0.1959,0.1288 0.082,-0.2102 -0.4798,0.3904zM31.9354,19.2184c0.0345,0.0806 0.0369,0.0716 0.1048,0.1355c0.1629,-0.2944 0.0546,-0.2568 -0.1048,-0.1355z" fill="none" fill-rule="nonzero" stroke="none" stroke-width="0" stroke-linecap="butt" stroke-linejoin="miter" stroke-miterlimit="10" stroke-dasharray="" stroke-dashoffset="0" font-family="none" font-weight="none" font-size="none" text-anchor="none" style="mix-blend-mode: normal"></path><path d="M21.2383,24.2621c-0.1885,0.0132 -0.6475,-0.0213 -0.857,-0.1751c-0.2214,-0.1626 -0.418,-0.6204 -0.4247,-0.8124c-0.0071,-0.202 0.0833,-0.5018 0.1547,-0.6495c0.1071,-0.2213 0.3327,-0.5568 0.5967,-0.867c0.4947,-0.5812 1.3728,-1.3866 2.4729,-2.0108c2.1329,-1.2103 5.6463,-1.8689 9.7276,0.1246c0.3735,0.1945 0.5851,0.6022 0.5293,1.0196c-0.0559,0.4174 -0.3673,0.7551 -0.7788,0.8445c0,0 -3.6243,0.7877 -11.4208,2.526zM23.9653,21.6055c4.7149,-1.0493 4.8977,-1.0839 4.8977,-1.0839c-1.8991,-0.2839 -2.8178,-0.1001 -4.695,0.9651c-0.0692,0.0393 -0.1368,0.0789 -0.2027,0.1187z" fill="none" fill-rule="nonzero" stroke="none" stroke-width="0" stroke-linecap="butt" stroke-linejoin="miter" stroke-miterlimit="10" stroke-dasharray="" stroke-dashoffset="0" font-family="none" font-weight="none" font-size="none" text-anchor="none" style="mix-blend-mode: normal"></path>
    <path d="M26.1699,53.474c-0.5513,0.0324 -1.0246,-0.3882 -1.057,-0.9396c-0.0669,-2.3016 1.8187,-5.8608 1.8187,-5.8608c-1.6313,-0.8581 0,0 0,0c-0.0324,-0.5513 0.3882,-1.0246 0.9396,-1.057c0.5513,-0.0324 1.0246,0.3882 1.057,0.9396c0,0 -1.7381,-0.3463 0,0c0,0 -1.9924,4.071 -1.8187,5.8608c0.0324,0.5513 -0.3882,1.0246 -0.9396,1.057z" fill="none" fill-rule="nonzero" stroke="none" stroke-width="0" stroke-linecap="butt" stroke-linejoin="miter" stroke-miterlimit="10" stroke-dasharray="" stroke-dashoffset="0" font-family="none" font-weight="none" font-size="none" text-anchor="none" style="mix-blend-mode: normal"></path><path d="M18.7105,48.0429c-0.1437,-0.5333 0.1721,-1.082 0.7054,-1.2257c0,0 1.6749,-0.4513 3.5609,-0.8251c0.9406,-0.1864 1.9694,-0.3596 2.8578,-0.4442c0.9015,-0.0859 2.0004,0.0716 2.0004,0.0716c0.049,-0.0023 0,0 0,0c0.5498,-0.0524 1.038,0.3508 1.0903,0.9006c0.0524,0.5498 -0.3508,1.038 -0.9006,1.0903c0,0 -0.049,0.0023 0,0c0,0 -1.1964,-0.1482 -2.0004,-0.0716c-0.8171,0.0779 -1.7465,0.2343 -2.6587,0.4151c-1.8198,0.3607 -3.4294,0.7944 -3.4294,0.7944c-0.5333,0.1437 -1.082,-0.1721 -1.2257,-0.7054z" fill="none" fill-rule="nonzero" stroke="none" stroke-width="0" stroke-linecap="butt" stroke-linejoin="miter" stroke-miterlimit="10" stroke-dasharray="" stroke-dashoffset="0" font-family="none" font-weight="none" font-size="none" text-anchor="none" style="mix-blend-mode: normal"></path><path d="M19.6761,48.7827c-0.5523,0 -1,-0.4477 -1,-1c0.1503,-1.1396 1.6278,-2.7954 3.112,-3.8911c0.7422,-0.5479 1.5556,-1.0654 2.2383,-1.4303c0.7,-0.3741 1.4984,-0.5633 1.4984,-0.5633c0.0523,-0.0242 0,0 0,0c0.4871,-0.2603 1.093,-0.0765 1.3533,0.4106c0.2603,0.4871 0.0765,1.093 -0.4106,1.3533c0,0 -0.0523,0.0242 0,0c0,0 -0.8999,0.2435 -1.4984,0.5633c-0.6158,0.3291 -1.3067,0.7686 -1.9931,1.2754c-1.3731,1.0136 -2.4501,1.8572 -2.2998,2.282c0,0.5523 -0.4477,1 -1,1z" fill="none" fill-rule="nonzero" stroke="none" stroke-width="0" stroke-linecap="butt" stroke-linejoin="miter" stroke-miterlimit="10" stroke-dasharray="" stroke-dashoffset="0" font-family="none" font-weight="none" font-size="none" text-anchor="none" style="mix-blend-mode: normal"></path>
    <path d="M43.603,45.7234c0.4923,-0.2502 1.0943,-0.054 1.3446,0.4384l1.8187,5.8608c0.1277,0.3329 0.0673,0.7087 -0.1583,0.9848c-0.2256,0.2761 -0.5818,0.4103 -0.9334,0.3515c-0.3517,-0.0587 -0.645,-0.3013 -0.7686,-0.6357c0,0 -0.0094,-0.0455 0,0c0,0 -0.08,-1.1784 -0.2334,-1.7788c-0.1546,-0.6053 -0.3661,-1.2171 -0.5941,-1.8042c-0.4517,-1.163 -0.9138,-2.0722 -0.9138,-2.0722c-0.2502,-0.4923 -0.054,-1.0943 0.4384,-1.3446z" fill="none" fill-rule="nonzero" stroke="none" stroke-width="0" stroke-linecap="butt" stroke-linejoin="miter" stroke-miterlimit="10" stroke-dasharray="" stroke-dashoffset="0" font-family="none" font-weight="none" font-size="none" text-anchor="none" style="mix-blend-mode: normal"></path><path d="M43.1145,46.9515c-0.1859,-0.5201 0.085,-1.0923 0.6051,-1.2782c1.9831,-0.6142 8.2539,1.1678 8.2539,1.1678c0.2984,-1.5764 0,0 0,0c0.5201,-0.1859 1.0923,0.085 1.2782,0.6051c0.1859,0.5201 -0.085,1.0923 -0.6051,1.2782c0,0 -0.2984,-1.5524 0,0c0,0 -6.8676,-1.758 -8.2539,-1.1678c-0.5201,0.1859 -1.0923,-0.085 -1.2782,-0.6051z" fill="none" fill-rule="nonzero" stroke="none" stroke-width="0" stroke-linecap="butt" stroke-linejoin="miter" stroke-miterlimit="10" stroke-dasharray="" stroke-dashoffset="0" font-family="none" font-weight="none" font-size="none" text-anchor="none" style="mix-blend-mode: normal"></path><path d="M44.99,42.7768c0.0018,-0.5523 0.4509,-0.9986 1.0032,-0.9968c0.8428,0.0627 2.721,1.0162 4.2048,2.1116c0.7423,0.5479 1.492,1.1865 2.0312,1.7735c0.559,0.6086 0.8172,1.4411 0.8172,1.4411c0.0551,0.0721 0,0 0,0c0.3736,0.4067 0.3468,1.0393 -0.06,1.4129c-0.4067,0.3736 -1.0393,0.3468 -1.4129,-0.06c0,0 -0.0551,-0.0721 0,0c0,0 -0.3805,-0.9656 -0.8172,-1.4411c-0.4566,-0.4971 -1.0598,-1.0107 -1.7461,-1.5174c-1.3734,-1.0139 -2.6553,-1.7795 -3.0234,-1.7207c-0.5523,-0.0018 -0.9986,-0.4509 -0.9968,-1.0032z" fill="none" fill-rule="nonzero" stroke="none" stroke-width="0" stroke-linecap="butt" stroke-linejoin="miter" stroke-miterlimit="10" stroke-dasharray="" stroke-dashoffset="0" font-family="none" font-weight="none" font-size="none" text-anchor="none" style="mix-blend-mode: normal"></path>
    <path d="M23.37,10.85c0.5523,0 1,0.4477 1,1c-0.0436,0.8947 -0.4467,1.8964 -1.0251,2.4749c-0.2924,0.2924 -0.7231,0.5851 -1.1122,0.7497c-0.3863,0.1634 -0.9731,0.1965 -0.9731,0.1965c-0.0907,0.0286 0,0 0,0c-0.5087,0.2151 -1.0954,-0.0228 -1.3106,-0.5315c-0.2151,-0.5087 0.0228,-1.0954 0.5315,-1.3106c0,0 0.0907,-0.0286 0,0c0,0 0.7612,-0.1068 0.9731,-0.1965c0.2091,-0.0884 0.3171,-0.1619 0.4771,-0.3219c0.3264,-0.3264 0.483,-0.5746 0.4393,-1.0607c0,-0.5523 0.4477,-1 1,-1z" fill="none" fill-rule="nonzero" stroke="none" stroke-width="0" stroke-linecap="butt" stroke-linejoin="miter" stroke-miterlimit="10" stroke-dasharray="" stroke-dashoffset="0" font-family="none" font-weight="none" font-size="none" text-anchor="none" style="mix-blend-mode: normal"></path><path d="M23.37,6.35c0.5523,0 1,0.4477 1,1v4.5c0,1.3807 0,0 0,0c0,0.5523 -0.4477,1 -1,1c-0.5523,0 -1,-0.4477 -1,-1c0,0 0,1.3807 0,0v-4.5c0,-0.5523 0.4477,-1 1,-1z" fill="none" fill-rule="nonzero" stroke="none" stroke-width="0" stroke-linecap="butt" stroke-linejoin="miter" stroke-miterlimit="10" stroke-dasharray="" stroke-dashoffset="0" font-family="none" font-weight="none" font-size="none" text-anchor="none" style="mix-blend-mode: normal"></path>
    <path d="M48.63,60.7165c-0.5523,0 -1,-0.4477 -1,-1c0.0436,-0.8947 0.4467,-1.8964 1.0251,-2.4749c0.2924,-0.2924 0.7231,-0.5851 1.1122,-0.7497c0.3863,-0.1634 0.9731,-0.1965 0.9731,-0.1965c0.0907,-0.0286 0,0 0,0c0.5087,-0.2151 1.0954,0.0228 1.3106,0.5315c0.2151,0.5087 -0.0228,1.0954 -0.5315,1.3106c0,0 -0.0907,0.0286 0,0c0,0 -0.7612,0.1068 -0.9731,0.1965c-0.2091,0.0884 -0.3171,0.1619 -0.4771,0.3219c-0.3264,0.3264 -0.483,0.5746 -0.4393,1.0607c0,0.5523 -0.4477,1 -1,1z" fill="none" fill-rule="nonzero" stroke="none" stroke-width="0" stroke-linecap="butt" stroke-linejoin="miter" stroke-miterlimit="10" stroke-dasharray="" stroke-dashoffset="0" font-family="none" font-weight="none" font-size="none" text-anchor="none" style="mix-blend-mode: normal"></path>
    <circle cx="50.782" cy="27.4753" r="1.9488"></circle>
    <circle cx="48.8332" cy="16.4818" r="1.9488"></circle>
    <circle cx="20.6797" cy="26.4668" r="1.9488"></circle>
    <path d="M41.7716,31.0968a1.9489,1.9489,0,1,1-1.9488-1.9489,1.95,1.95,0,0,1,1.9488,1.9489"></path>
    <path d="M33.9763,31.0968a1.9489,1.9489,0,1,1-1.9489-1.9489,1.95,1.95,0,0,1,1.9489,1.9489"></path>
    <path d="M35.925,40.8433a7.4566,7.4566,0,0,1-3.3591-.836.9745.9745,0,1,1,.8717-1.7432,5.24,5.24,0,0,0,4.9748,0,.9745.9745,0,1,1,.8717,1.7432A7.4566,7.4566,0,0,1,35.925,40.8433Z"></path>
  </g>
</svg>