<svg id="emoji" version="1.1" viewBox="0 0 72 72" xmlns="http://www.w3.org/2000/svg">
 <g id="grid">
  <path d="m68 4v64h-64v-64h64m4-4h-72v72h72z" fill="#b3b3b3"/>
  <path d="m12.923 10.958h46.154a1.9231 1.9231 0 0 1 1.9231 1.9231v46.154a1.9231 1.9231 0 0 1-1.9231 1.9231h-46.154a1.9231 1.9231 0 0 1-1.9231-1.9231v-46.154a1.923 1.923 0 0 1 1.923-1.923z" fill="none" stroke="#00a5ff" stroke-miterlimit="10" stroke-width=".1"/>
  <rect x="16" y="4" width="40" height="64" rx="2.2537" fill="none" stroke="#00a5ff" stroke-miterlimit="10" stroke-width=".1"/>
  <rect transform="translate(72) rotate(90)" x="16" y="4" width="40" height="64" rx="2.2537" fill="none" stroke="#00a5ff" stroke-miterlimit="10" stroke-width=".1"/>
  <circle cx="36" cy="36" r="29" fill="none" stroke="#00a5ff" stroke-miterlimit="10" stroke-width=".1"/>
 </g>
 <g id="color">
  <path d="m10.094 21.711 1.1342 2.6601 5.831 10.763 37.963 0.13258 5.8539-11.264 1.0514-2.4359" fill="#a57939"/>
  <path d="m50.75 40.406c0 7.266-5.968 6.924-14.856 6.924s-15.331 0.34198-15.331-6.924 5.2054-13.156 14.094-13.156 16.094 5.8903 16.094 13.156z" fill="#fcea2b" stroke-linecap="round" stroke-linejoin="round" stroke-width="1.0219"/>
  <polygon transform="matrix(-.22579 -.13645 -.13471 .22873 56.937 29.951)" points="4 23.35 36 64.08 68 23.35 56.38 11.98 16.38 11.98" fill="#d22f27"/>
  <polyline transform="matrix(-.22579 -.13645 -.13471 .22873 56.937 29.951)" points="37.37 62.34 55.75 23.35 36 11.98 56.38 11.98 68 23.35 37.37 62.34" fill="#ea5a47"/>
  <polygon transform="matrix(-.26218 .029409 .032581 .26344 35.202 23.33)" points="68 23.35 56.38 11.98 16.38 11.98 4 23.35 36 64.08" fill="#d22f27"/>
  <polyline transform="matrix(-.26218 .029409 .032581 .26344 35.202 23.33)" points="37.37 62.34 55.75 23.35 36 11.98 56.38 11.98 68 23.35 37.37 62.34" fill="#ea5a47"/>
  <path d="m60.945 21.35s0.37024-10.101-8.6038-10.25c-10.351-0.17218-27.581 0.01791-32.279 0-9.0514-0.03451-9.0585 10.25-9.0585 10.25z" fill="#a57939"/>
  <rect x="30.969" y="35.438" width="9.5938" height="6.2812" fill="#fcea2b"/>
  <path d="m11.667 35.09 18.895 0.02398 1.169 9.9502 4.7934 1.8018 4.1048-2.6557 0.99551-9.0822 19.288 0.02448-1.7812 25.04h-47.465z" fill="#a57939" stroke-linecap="round" stroke-linejoin="round" stroke-width="2"/>
 </g>
 <g id="line" fill="none" stroke="#000" stroke-linecap="round" stroke-linejoin="round">
  <path transform="matrix(-.26218 .029409 .032581 .26344 35.201 23.332)" d="m62.348 30.545 5.6525-7.1945-11.62-11.37h-40l-12.38 11.37 9.4298 12.002m22.57-23.372 19.75 11.37m-51.75-1e-6 64 2e-6m-51.74 0.51 5.3287 10.857m34.161-10.857-3.6746 7.4831m-16.075 1.6941v-8.6872-12.37l-19.74 11.37m0.12-11.37-12.38 11.37h64l-11.62-11.37zm-27.387 25.394 0.08746-25.975-16.105-2.0553-31.438 24.228m15.42-11.884 22.495-2.869m-31.113 23.872 40.741-31.292m-9.3152 7.8276 3.8815 18.74m-12.579 2.1247-14.11-18.404-8.5427 21.05m40.665-31.339-16.105-2.0553-31.438 24.228-1.5915 9.978" stroke-width="3.7789"/>
  <path d="m11.066 35.162h49.771m-48.271 25.801h46.57l1.7012-25.801h-49.771l1.5 25.801h46.57" fill="none" stroke="#000" stroke-linecap="round" stroke-linejoin="round" stroke-width="2"/>
  <path d="m55.1 34.783 4.8406-11.128m-47.891 0.09222 4.8008 11.035" fill="none" stroke="#000" stroke-linecap="round" stroke-linejoin="round" stroke-width="2"/>
  <path d="m60.945 21.35s0.37024-10.101-8.6038-10.25c-10.351-0.17218-27.581 0.01791-32.279 0-9.0514-0.034509-9.0585 10.25-9.0585 10.25z" fill="none" stroke="#000" stroke-linecap="round" stroke-linejoin="round" stroke-width="2"/>
  <path d="m35.996 41.249v2.4749" fill="none" stroke="#000" stroke-linecap="round" stroke-linejoin="round" stroke-width="2"/>
  <circle cx="36.02" cy="40.272" r="1.69" fill="#000" stroke="none"/>
  <path d="m41.25 35.556v4.4128s0.11461 2.5611-0.7786 4.2437c-1.0199 1.9213-2.5339 2.9058-4.4402 2.9126-1.7158 0.0061-3.5482-0.79003-4.4393-2.6082-0.83457-1.7027-0.77942-4.5481-0.77942-4.5481v-4.4128" fill="none" stroke="#000" stroke-linecap="round" stroke-linejoin="round" stroke-width="2"/>
 </g>
</svg>
